<?xml version="1.0" encoding="utf-8"?>
<!-- Generator: Adobe Illustrator 16.0.3, SVG Export Plug-In . SVG Version: 6.00 Build 0)  -->
<!DOCTYPE svg PUBLIC "-//W3C//DTD SVG 1.1//EN" "http://www.w3.org/Graphics/SVG/1.1/DTD/svg11.dtd">
<svg version="1.1" xmlns="http://www.w3.org/2000/svg" xmlns:xlink="http://www.w3.org/1999/xlink" x="0px" y="0px" width="920px"
	 height="200px" viewBox="0 0 920 200" enable-background="new 0 0 920 200" xml:space="preserve">
<g id="circle">
	<circle id="circle_1_" fill="#FF9416" cx="100.157" cy="100" r="99.897"/>
	<g id="empire">
		<polygon id="antenna" fill="#FFFFFF" stroke="#ABABAB" stroke-width="2" stroke-linejoin="round" stroke-miterlimit="10" points="
			121.805,61.921 123.633,44.606 125.461,61.921 		"/>
		
			<rect id="main" x="113.643" y="59.05" fill="#FFFFFF" stroke="#ABABAB" stroke-width="2" stroke-linejoin="round" stroke-miterlimit="10" width="19.979" height="85.405"/>
		
			<polygon id="trapezoid" fill="#FFFFFF" stroke="#ABABAB" stroke-width="2" stroke-linejoin="round" stroke-miterlimit="10" points="
			116.763,59.05 118.093,55.574 129.506,55.574 130.502,59.05 		"/>
		
			<rect id="top_right" x="129.958" y="64.812" fill="#FFFFFF" stroke="#ABABAB" stroke-width="2" stroke-linejoin="round" stroke-miterlimit="10" width="6.162" height="14.942"/>
		
			<rect id="top_left" x="111.146" y="64.812" fill="#FFFFFF" stroke="#ABABAB" stroke-width="2" stroke-linejoin="round" stroke-miterlimit="10" width="6.163" height="14.942"/>
		
			<rect id="mid_right" x="128.528" y="79.754" fill="#FFFFFF" stroke="#ABABAB" stroke-width="2" stroke-linejoin="round" stroke-miterlimit="10" width="7.592" height="51.054"/>
		
			<rect id="mid_left" x="111.146" y="79.754" fill="#FFFFFF" stroke="#ABABAB" stroke-width="2" stroke-linejoin="round" stroke-miterlimit="10" width="7.677" height="51.054"/>
		
			<rect id="bottom_right" x="126.314" y="123.754" fill="#FFFFFF" stroke="#ABABAB" stroke-width="2" stroke-linejoin="round" stroke-miterlimit="10" width="9.805" height="20.701"/>
		
			<rect id="bottom_left" x="111.146" y="123.754" fill="#FFFFFF" stroke="#ABABAB" stroke-width="2" stroke-linejoin="round" stroke-miterlimit="10" width="9.806" height="20.701"/>
	</g>
	<g id="liberty">
		
			<rect id="neck" x="78.847" y="66.899" fill="#FFFFFF" stroke="#ABABAB" stroke-width="2" stroke-linejoin="round" stroke-miterlimit="10" width="9.144" height="12.123"/>
		<path id="face" fill="#FFFFFF" stroke="#ABABAB" stroke-width="2" stroke-linejoin="round" stroke-miterlimit="10" d="
			M77.58,58.002v9.232c0,0,3.206,4.537,6.066,4.483c2.447-0.045,5.522-4.483,5.522-4.483v-9.232H77.58z"/>
		<polygon id="arm" fill="#FFFFFF" stroke="#ABABAB" stroke-width="2" stroke-miterlimit="10" points="65.193,83.66 65.193,66.699 
			68.814,66.699 74.85,79.888 		"/>
		<polygon id="robe_1_" fill="#FFFFFF" stroke="#ABABAB" stroke-width="2" stroke-linejoin="round" stroke-miterlimit="10" points="
			64.244,83.017 75.782,75.227 89.168,75.227 89.168,144.455 64.194,144.455 		"/>
		
			<path id="wrinkle2" fill="none" stroke="#ABABAB" stroke-width="2" stroke-linecap="round" stroke-linejoin="round" stroke-miterlimit="10" d="
			M64.21,141.656c0,0,1.224-9.09,14.07-18.5c9.676-7.09,10.889-15.365,10.889-15.365"/>
		
			<path id="wrinkle1" fill="none" stroke="#ABABAB" stroke-width="2" stroke-linecap="round" stroke-linejoin="round" stroke-miterlimit="10" d="
			M64.23,110.588c0,0-1.334-5.768,10.088-12.486c9.114-5.361,9.101-10.724,9.101-10.724"/>
		
			<rect id="torch3_1_" x="64.194" y="58.002" fill="#FFFFFF" stroke="#ABABAB" stroke-width="2" stroke-linejoin="round" stroke-miterlimit="10" width="5.678" height="11.852"/>
		<path id="torch2_2_" fill="#FFFFFF" stroke="#ABABAB" stroke-width="2" stroke-linejoin="round" stroke-miterlimit="10" d="
			M65.233,55.747c-0.841-0.253-1.647-0.855-1.814-2.287c-0.14-1.204,0.322-2.898,3.21-3.712c3.848-1.084,6.689-3.138,6.689-3.138
			s-0.244,1.274-1.161,5.102c-0.669,2.789-1.297,3.578-3.202,4.035C67.725,56.042,66.116,56.012,65.233,55.747z"/>
		
			<rect id="torch1_1_" x="62.031" y="55.524" fill="#FFFFFF" stroke="#ABABAB" stroke-width="2" stroke-linejoin="round" stroke-miterlimit="10" width="9.955" height="4.373"/>
		
			<polygon id="torch_hand" fill="#FFFFFF" stroke="#ABABAB" stroke-width="2" stroke-linejoin="round" stroke-miterlimit="10" points="
			63.296,62.903 63.286,67.604 66.483,67.604 67.98,62.903 		"/>
		<path id="crown" fill="#FFFFFF" stroke="#ABABAB" stroke-width="2" stroke-linejoin="round" stroke-miterlimit="10" d="
			M77.58,62.039l-1.437-3.196l-4.927-4.519l6.314,3.014l0.77-0.516l-3.431-7.816l5.886,6.738l1.111-0.068l1.672-9.066l1.247,8.9
			l1.156,0.086l5.68-6.798l-3.406,7.774l0.884,0.625l6.162-3.637L90.3,58.843l-1.132,3.196c0,0-0.799-2.997-5.52-2.997
			C78.59,59.042,77.58,62.039,77.58,62.039z"/>
		
			<rect id="tablet" x="81.576" y="82.618" fill="#FFFFFF" stroke="#ABABAB" stroke-width="2" stroke-linejoin="round" stroke-miterlimit="10" width="9.165" height="17.382"/>
		
			<polygon id="tablet_hand" fill="#FFFFFF" stroke="#ABABAB" stroke-width="2" stroke-linejoin="round" stroke-miterlimit="10" points="
			91.945,87.378 91.956,92.079 88.759,92.079 87.261,87.378 		"/>
		<polygon id="foot" fill="#FFFFFF" stroke="#ABABAB" stroke-width="2" stroke-linejoin="round" stroke-miterlimit="10" points="
			81.421,144.439 89.168,144.455 89.168,140.057 81.421,138.594 		"/>
	</g>
	<g id="empire_outline_1_">
		<path d="M123.633,44.605l1.159,10.968h4.713l0.997,3.477h3.121v5.762h2.497v79.643h-24.974V64.812h2.498V59.05h3.121l1.328-3.477
			h4.382L123.633,44.605 M123.633,42.605L123.633,42.605c-1.023,0-1.881,0.772-1.989,1.79l-0.97,9.178h-2.582
			c-0.829,0-1.572,0.512-1.868,1.286l-0.837,2.19h-1.744c-1.104,0-2,0.896-2,2v3.762h-0.498c-1.104,0-2,0.896-2,2v79.643
			c0,1.104,0.896,2,2,2h24.974c1.104,0,2-0.896,2-2V64.812c0-1.104-0.896-2-2-2h-0.497V59.05c0-1.104-0.896-2-2-2h-1.614
			l-0.582-2.028c-0.246-0.857-1.03-1.449-1.922-1.449h-2.913l-0.97-9.178C125.514,43.378,124.656,42.605,123.633,42.605
			L123.633,42.605z"/>
	</g>
	<g id="liberty_outline_1_">
		<path d="M83.54,46.609l1.247,8.9l1.157,0.086l5.68-6.799l-3.406,7.774l0.883,0.625l6.162-3.638l-4.961,5.285l-1.133,3.196v5.195
			c0,0-0.466,0.669-1.177,1.492v6.5h1.177v7.391h1.572v4.759h1.205l0.01,4.702H90.74V100h-1.572v44.455H64.194l0.05-61.44
			l0.949-0.646V69.854h-0.999v-2.25h-0.91l0.012-4.701h0.897v-3.005H62.03v-4.373h2.663c-0.623-0.334-1.145-0.945-1.274-2.064
			c-0.14-1.205,0.323-2.899,3.21-3.712c3.789-1.068,6.6-3.074,6.688-3.136c-0.01,0.062-0.264,1.367-1.159,5.101
			c-0.288,1.195-0.565,2.021-0.94,2.613c-0.376,0.591-0.846,0.949-1.517,1.199h2.286v4.373h-2.114v9.114l3.554,7.769l2.355-1.554
			h3.065v-6.448c-0.773-0.845-1.267-1.544-1.267-1.544v-5.195l-1.436-3.196l-4.927-4.518l6.313,3.013l0.771-0.515l-3.431-7.816
			l5.886,6.737l1.111-0.067L83.54,46.609 M83.54,44.609c-0.962,0-1.791,0.687-1.966,1.637l-1.126,6.104l-4.07-4.659
			c-0.298-0.341-0.69-0.559-1.107-0.644c0.01-0.052,0.017-0.088,0.02-0.109c0.131-0.795-0.228-1.592-0.911-2.021
			c-0.326-0.204-0.694-0.306-1.063-0.306c-0.404,0-0.808,0.123-1.153,0.366c-0.114,0.081-2.697,1.893-6.077,2.846
			c-4.686,1.32-4.772,4.679-4.662,5.795c-0.808,0.257-1.394,1.013-1.394,1.907v4.373c0,0.955,0.67,1.754,1.565,1.953
			c-0.188,0.304-0.298,0.663-0.299,1.047l-0.012,4.701c-0.001,0.532,0.208,1.042,0.584,1.418c0.1,0.1,0.209,0.188,0.326,0.264v0.574
			c0,0.74,0.401,1.386,0.999,1.731v9.726l-0.074,0.05c-0.547,0.372-0.875,0.99-0.875,1.652l-0.05,61.439
			c0,0.531,0.21,1.04,0.585,1.416c0.375,0.375,0.884,0.586,1.415,0.586h24.974c1.104,0,2-0.896,2-2v-42.501
			c0.899-0.196,1.572-0.997,1.572-1.954v-6.082c0.233-0.1,0.448-0.244,0.63-0.427c0.375-0.376,0.585-0.886,0.584-1.417l-0.01-4.702
			c-0.002-0.82-0.497-1.524-1.205-1.832v-2.923c0-0.958-0.673-1.758-1.572-1.954v-5.437c0-0.812-0.483-1.51-1.177-1.823v-3.952
			c0.493-0.609,0.802-1.051,0.818-1.075c0.233-0.335,0.359-0.734,0.359-1.143v-4.851l0.878-2.477l4.674-4.979
			c0.682-0.726,0.725-1.842,0.103-2.619c-0.392-0.489-0.972-0.75-1.562-0.75c-0.348,0-0.698,0.09-1.016,0.278l-2.388,1.41
			l1.598-3.646c0.399-0.912,0.067-1.979-0.779-2.503c-0.326-0.202-0.69-0.3-1.052-0.3c-0.576,0-1.144,0.248-1.536,0.718
			l-3.771,4.513l-0.798-5.696c-0.136-0.972-0.957-1.701-1.937-1.722C83.569,44.609,83.554,44.609,83.54,44.609L83.54,44.609z
			 M73.793,53.338c0.101-0.336,0.2-0.708,0.301-1.125l0.704,1.605L73.793,53.338L73.793,53.338z M71.872,61.897h0.114
			c1.104,0,2-0.896,2-2v-0.32l0.502,0.461l1.091,2.429v4.766c0,0.413,0.128,0.815,0.366,1.153c0.018,0.025,0.355,0.501,0.901,1.146
			v3.694h-1.065c-0.392,0-0.774,0.115-1.101,0.331l-0.407,0.268l-2.402-5.249V61.897L71.872,61.897z"/>
	</g>
</g>
<g id="text">
	<path d="M243.452,78.613c0-32.233-62.628-30.806-62.628-30.806l2.244,102.41l19.584-2.041l-0.408-39.982
		C202.244,108.193,243.452,102.828,243.452,78.613z M200.816,90.444l-0.204-23.052c0,0,22.808,0.818,23.053,11.938
		C223.868,88.608,200.816,90.444,200.816,90.444z"/>
	<path d="M291.188,66.576l-26.928-3.468l-28.56,90.984h22.439l6.121-26.928l18.36-0.408l6.528,24.072l18.768-2.244L291.188,66.576z
		 M267.524,108.803l5.101-20.398h5.508l3.264,20.398H267.524z"/>
	<path d="M315.261,52.091l20.4-0.407c0,0-8.391,73.441,10.2,73.441c21.828,0,20.4-68.137,20.4-68.137l20.4-1.633
		c0,0,4.861,86.739-42.84,88.946C299.757,146.34,315.261,52.091,315.261,52.091z"/>
	<path d="M451.535,52.091v18.36c0,0-32.097-2.991-33.254,13.26c-1.014,14.25,35.695,7.129,35.701,36.109
		c0.008,39.984-59.568,32.639-59.568,32.639l-0.408-19.582c0,0,39.576,4.488,39.984-11.834
		c0.332-13.254-36.107-10.199-36.947-34.308C395.57,44.47,451.535,52.091,451.535,52.091z"/>
	<path d="M468.263,48.419c0,0-3.263,26.754-3.263,49.487c0,22.73,1.223,45.589,1.223,45.589h60.793V123.9l-42.842-0.816
		l-0.406-18.361l37.535,0.816l0.408-17.543l-37.943-1.632l0.816-18.156l42.432,0.815V49.644L468.263,48.419z"/>
	<path fill="#FF9416" d="M593.112,46.114l-25.704,3.672l-28.969,90.986h20.809l6.936-29.174h18.361l4.895,33.268h17.137
		L593.112,46.114z M569.652,93.85l4.691-19.993l7.752-0.815l1.632,20.809H569.652z"/>
	<polygon fill="#FF9416" points="615.824,52.234 664.512,52.234 664.512,71.002 650.096,71.002 649.281,131.658 663.697,131.658 
		662.881,147.436 618,149.611 616.913,131.658 632.145,131.658 631.328,70.73 615.824,70.73 	"/>
	<polygon points="715.465,49.78 710.299,143.893 728.523,145.947 730.699,91.94 749.193,145.947 777.754,147.973 790.27,51.412 
		770.412,49.78 760.076,114.244 735.322,49.78 	"/>
	<polygon points="797.34,50.868 816.381,47.875 831.068,86.773 849.564,49.236 869.965,53.588 839.502,107.988 838.143,146.885 
		817.195,146.885 819.643,107.988 	"/>
	<path d="M919.74,49.507v21.217c0,0-34.002,1.088-35.088,28.662c-0.938,23.692,35.088,26.553,35.088,26.553l-2.992,20.945
		c0,0-53.041,0.816-52.225-48.145C865.338,49.78,919.74,49.507,919.74,49.507z"/>
</g>
</svg>
